<?xml version="1.0" encoding="UTF-8"?>
<svg id="Layer_1" data-name="Layer 1" xmlns="http://www.w3.org/2000/svg" viewBox="0 0 595.28 595.28">
  <defs>
    <style>
      .cls-1 {
        fill: #000;
        stroke-width: 0px;
      }
    </style>
  </defs>
  <path class="cls-1" d="M287.71,460.7c-34.53,0-68.02-.12-101.02-.35-19.28-.14-31.28-12.88-31.32-33.25l-.02-9.77c-.05-24.22-.1-49.26.04-73.9.16-27.66,10-37.49,37.59-37.57,23.3-.06,46.63-.04,69.91-.06,29.64.01,59.32,0,88.98-.13,1.26.01,2.86.15,4.32.32,3.65.41,5.65.56,7.63-1.17,10.1-8.83,20.27-17.59,30.45-26.34,10.05-8.65,20.11-17.3,30.09-26.03,12.21-10.67,5.75-18.66,3.63-21.28l-6.01-7.44c-20.34-25.17-41.38-51.2-63.19-75.74-5.82-6.54-12.2-6.78-19.5-.71-3.38,2.81-6.78,5.68-10.2,8.57-5.35,4.52-10.74,9.07-16.11,13.45-35.62,29.02-71.38,59.11-105.97,88.22-12.13,10.21-24.27,20.42-36.42,30.6-1.77,1.48-4.41,1.25-5.89-.52-1.48-1.77-1.25-4.41.52-5.89,12.15-10.18,24.28-20.39,36.4-30.59,34.61-29.12,70.4-59.24,106.07-88.3,5.34-4.35,10.69-8.87,16-13.35,3.44-2.9,6.86-5.79,10.25-8.61,10.69-8.89,22.31-8.3,31.1,1.59,21.94,24.68,43.04,50.79,63.45,76.03l6.01,7.44c8.67,10.72,6.99,22.69-4.62,32.84-10,8.74-20.07,17.41-30.14,26.07-10.16,8.74-20.32,17.48-30.4,26.3-4.86,4.24-10.2,3.63-14.09,3.18-1.1-.13-2.2-.26-3.28-.26h-.05c-29.67.13-59.34.15-89.02.13-23.31,0-46.59,0-69.89.06-22.83.06-29.11,6.35-29.25,29.25-.14,24.6-.09,49.63-.04,73.83l.02,9.77c.03,15.95,8.2,24.8,23.02,24.9,64.37.45,130.69.47,202.75.03,16.13-.1,22.55-7.11,22.88-25.01.53-28.35.54-57.13.02-85.56-.42-22.67-5.32-27.26-29.15-27.26-2.31,0-4.18-1.87-4.18-4.18s1.87-4.18,4.18-4.18c28.25,0,37.01,8.29,37.51,35.47.53,28.53.52,57.42-.02,85.87-.42,22.22-10.63,33.09-31.2,33.22-35.16.21-68.97.32-101.84.32Z"/>
  <path class="cls-1" d="M175.4,418.92c-4.39,0-9.03-.47-13.55-2.73-2.06-1.03-2.9-3.54-1.87-5.61,1.04-2.06,3.54-2.9,5.61-1.87,4.26,2.13,9.1,1.93,14.2,1.73,1.62-.07,3.2-.16,4.84-.13,51.7.06,103.39.05,155.08.06h43.53c2.31,0,4.18,1.87,4.18,4.18s-1.87,4.18-4.18,4.18h-43.53c-51.7,0-103.39.01-155.09-.05h-.06c-1.47,0-2.95.06-4.43.12-1.53.06-3.11.13-4.73.13Z"/>
  <path class="cls-1" d="M202.99,383.62c-5.63,0-9.8-1.37-12.9-4.18-4.2-3.81-5.98-9.78-5.78-19.35l.04-2.07c.61-29.9,2.6-31.65,35.89-31.17.82,0,1.79-.12,2.72-.24,3.53-.46,8.85-1.14,13.19,3.82.28.32.51.69.68,1.08,4.51,10.32,4.39,21.07,4.27,31.47-.03,2.53-.06,5.07-.02,7.6.04,2.31-1.8,4.21-4.11,4.25-2.22,0-4.21-1.8-4.25-4.11-.04-2.6-.01-5.21.02-7.82.11-9.69.21-18.87-3.29-27.36-1.16-1.06-2.43-1-5.42-.61-1.25.16-2.55.31-3.91.31-13.07-.2-21.71-.32-24.49,2.07-2.54,2.18-2.68,9.22-2.92,20.9l-.04,2.07c-.14,6.75.85,10.99,3.04,12.98,2.03,1.84,5.77,2.41,11.45,1.74,5.03-.59,10.08-.44,14.96-.29,2.14.06,4.28.13,6.42.13,2.31,0,4.18,1.87,4.18,4.18s-1.87,4.18-4.18,4.18-4.44-.07-6.67-.13c-4.79-.15-9.31-.28-13.73.24-1.84.22-3.55.33-5.15.33Z"/>
  <path class="cls-1" d="M257.8,310.01c-.92,0-1.84-.3-2.61-.92-1.8-1.44-2.1-4.07-.65-5.88.84-1.05,1.62-2.15,2.41-3.25,1.92-2.69,3.91-5.47,6.63-7.72,34.11-28.15,68.32-56.17,102.52-84.2l24.95-20.44c1.78-1.47,4.42-1.2,5.88.58,1.46,1.79,1.2,4.42-.58,5.88l-24.95,20.44c-34.2,28.02-68.4,56.04-102.5,84.18-1.88,1.55-3.47,3.78-5.15,6.13-.88,1.23-1.75,2.45-2.68,3.62-.82,1.03-2.04,1.57-3.27,1.57Z"/>
  <path class="cls-1" d="M312.17,226.38c-1.77,0-3.41-1.13-3.98-2.91-.71-2.2.5-4.55,2.7-5.26,10.77-3.46,18.57-11.09,26.82-19.18,4.2-4.11,8.53-8.35,13.32-12.04,3.48-2.68,3.92-4.26,3.94-4.81.07-1.68-2.74-4.29-5.23-6.58-1.28-1.18-2.58-2.38-3.77-3.67l-9.77,8.03c-10.3,8.45-20.04,16.44-29.65,24.58-1.36,1.15-4.98,4.22-4.97,6.33,0,1.04,1,2.44,2.8,3.93,1.78,1.47,2.03,4.11.55,5.89-1.47,1.78-4.11,2.03-5.89.55-3.84-3.19-5.8-6.66-5.82-10.32-.03-5.3,3.99-9.42,7.93-12.75,9.66-8.18,19.42-16.19,29.75-24.66l13.07-10.74c.93-.77,2.16-1.1,3.36-.9,1.2.2,2.25.92,2.88,1.96,1.12,1.86,3.2,3.78,5.21,5.64,3.82,3.53,8.15,7.54,7.91,13.1-.18,3.85-2.53,7.46-7.2,11.06-4.39,3.38-8.36,7.27-12.57,11.39-8.59,8.41-17.47,17.1-30.12,21.16-.42.14-.86.2-1.28.2Z"/>
  <path class="cls-1" d="M337.25,310.01c-.95,0-1.91-.32-2.69-.98-1.76-1.49-1.99-4.13-.5-5.89,13.79-16.35,30.63-29.37,46.92-41.97,10.37-8.02,21.1-16.31,30.79-25.31,1.69-1.57,4.33-1.47,5.91.22,1.57,1.69,1.47,4.34-.22,5.91-9.97,9.25-20.85,17.66-31.36,25.79-15.94,12.33-32.43,25.07-45.64,40.74-.83.98-2.01,1.49-3.2,1.49Z"/>
  <path class="cls-1" d="M266.17,439.63h-79.45c-2.31,0-4.18-1.87-4.18-4.18s1.87-4.18,4.18-4.18h79.45c2.31,0,4.18,1.87,4.18,4.18s-1.87,4.18-4.18,4.18Z"/>
  <path class="cls-1" d="M333.07,282.83c-.78,0-1.56-.22-2.27-.67-1.94-1.25-2.5-3.84-1.24-5.78,8.6-13.3,20.78-22.61,32.56-31.61,8.86-6.77,17.23-13.16,24.26-21.15,1.53-1.74,4.18-1.9,5.9-.38,1.74,1.53,1.9,4.17.38,5.9-7.58,8.61-16.67,15.56-25.46,22.28-11.73,8.96-22.8,17.42-30.61,29.5-.8,1.24-2.14,1.91-3.52,1.91Z"/>
</svg>