<svg xmlns="http://www.w3.org/2000/svg" version="1.1" xmlns:xlink="http://www.w3.org/1999/xlink" xmlns:svgjs="http://svgjs.com/svgjs" width="1024.000000pt" height="1024.000000pt"><svg version="1.0" xmlns="http://www.w3.org/2000/svg" width="1024.000000pt" height="1024.000000pt" viewBox="0 0 1024.000000 1024.000000" preserveAspectRatio="xMidYMid meet">

<g transform="translate(0.000000,1024.000000) scale(0.100000,-0.100000)" fill="#000000" stroke="none">
<path d="M5730 8317 c-30 -13 -221 -106 -423 -206 -203 -99 -370 -181 -371
-181 -2 0 -104 -49 -227 -109 -123 -60 -309 -149 -414 -199 -104 -49 -360
-174 -567 -276 -366 -180 -380 -188 -446 -253 -49 -49 -79 -89 -105 -143 -75
-153 -70 -62 -71 -1450 0 -1151 1 -1250 17 -1315 43 -172 156 -324 290 -390
152 -75 8 -69 1711 -72 1508 -3 1531 -3 1610 17 45 11 110 34 146 52 86 41
192 149 242 243 68 132 71 147 76 487 l4 306 50 7 c64 9 179 67 213 107 14 17
38 54 53 82 l27 51 3 373 c3 416 0 443 -61 524 -55 72 -139 119 -259 143 l-27
5 -3 333 c-4 330 -4 333 -31 405 -85 234 -261 372 -498 389 -49 3 -89 9 -89
14 0 4 -44 111 -99 239 -101 236 -121 270 -193 316 -40 25 -42 29 -135 254
-32 78 -70 156 -84 173 -73 88 -228 122 -339 74z m181 -313 c39 -86 41 -96 16
-100 -7 -1 -107 -48 -222 -104 -116 -56 -244 -117 -285 -135 -41 -18 -142 -65
-225 -105 -82 -39 -170 -80 -195 -90 -25 -10 -99 -44 -165 -75 -66 -31 -164
-77 -218 -101 l-98 -44 -207 2 -207 3 74 30 c41 16 92 41 115 55 23 15 201
101 396 193 195 91 492 232 660 313 265 127 509 242 518 244 2 0 21 -39 43
-86z m294 -476 c10 -24 40 -91 67 -150 26 -59 48 -112 48 -117 0 -6 -160 -9
-417 -9 l-418 0 90 43 c263 127 582 274 596 274 10 1 23 -16 34 -41z m-2475
-902 l0 -385 26 -20 c47 -37 102 -24 130 32 14 26 16 51 11 149 -4 65 -4 228
0 363 l6 245 74 0 73 0 0 -808 0 -809 29 -39 c15 -22 43 -52 60 -67 l33 -27
285 0 285 0 134 -132 134 -131 0 -509 0 -508 -70 0 -70 0 0 428 0 428 -133
132 -134 132 -616 0 -617 0 0 80 0 80 188 0 188 0 66 68 c36 37 71 77 77 89 6
13 11 79 11 163 0 136 -1 142 -25 165 -30 31 -92 34 -125 7 -21 -17 -23 -29
-28 -145 l-5 -127 -33 -30 -34 -29 -137 2 -138 2 -3 78 -3 77 85 0 c75 0 88 3
106 22 26 28 27 88 1 119 -17 21 -29 24 -105 28 l-86 3 0 234 0 234 70 0 c74
0 123 17 134 45 10 28 7 80 -7 99 -14 20 -80 34 -154 35 l-43 1 0 70 0 70 84
0 c79 0 86 2 105 26 26 33 27 84 2 115 -17 21 -29 24 -105 28 l-86 3 6 27 c34
149 170 267 312 270 l42 1 0 -384z m652 -213 c4 -669 0 -637 77 -737 75 -100
207 -151 324 -126 85 17 171 85 214 168 29 57 33 73 33 146 0 104 -28 166
-106 233 l-54 47 2 430 3 431 895 0 895 0 49 -23 c68 -31 128 -82 164 -139 36
-58 58 -121 45 -134 -5 -5 -73 -6 -155 -2 l-145 6 -79 73 -79 73 -118 1 -117
0 -79 -75 c-76 -73 -80 -75 -129 -75 -49 0 -53 2 -130 75 l-80 75 -101 0 -100
0 -84 -75 -84 -75 -116 0 c-110 0 -115 1 -110 20 13 49 -42 110 -99 110 -41 0
-86 -36 -99 -78 -17 -58 1 -99 71 -166 l59 -56 178 0 178 0 75 68 c41 38 84
74 96 80 35 18 69 1 147 -75 l74 -73 118 0 117 0 81 75 c77 70 85 75 127 75
42 0 50 -5 123 -75 l79 -75 199 0 200 0 -3 -72 -3 -73 -931 -5 c-750 -4 -934
-8 -947 -18 -41 -34 -27 -121 22 -142 20 -8 274 -10 942 -8 l914 3 0 -65 0
-65 -265 -5 c-244 -5 -269 -7 -321 -28 -180 -72 -329 -255 -375 -459 -23 -106
-16 -255 18 -350 54 -150 184 -301 320 -367 107 -53 197 -67 428 -66 l195 2 0
-156 0 -156 -61 0 c-59 0 -62 1 -74 29 -16 39 -73 95 -119 117 -55 27 -159 30
-212 7 -104 -46 -159 -131 -159 -244 0 -94 35 -160 114 -214 56 -39 61 -40
139 -40 71 0 88 4 128 27 41 24 119 109 119 130 0 4 28 8 61 8 l62 0 -6 -45
c-19 -137 -128 -252 -276 -290 -43 -12 -135 -15 -431 -15 l-375 0 -1 73 c-1
39 -2 228 -3 418 -1 389 0 382 -73 395 -33 5 -41 2 -68 -24 l-30 -30 0 -416 0
-416 -80 0 -80 0 0 564 0 563 63 0 c34 0 69 2 77 4 11 3 16 -7 18 -38 4 -58
49 -98 101 -89 80 13 120 83 88 151 -14 29 -17 66 -17 193 0 152 -1 159 -29
217 -55 118 -167 183 -296 173 -82 -7 -145 -39 -205 -105 -105 -115 -110 -273
-12 -392 l37 -45 0 -586 c1 -322 -1 -591 -3 -597 -3 -9 -28 -13 -78 -13 l-74
0 0 544 0 544 -177 181 -178 182 -282 -1 -282 0 -20 26 c-21 26 -21 33 -21
790 l0 764 80 0 79 0 3 -597z m316 176 l-3 -420 -53 -18 c-28 -10 -61 -26 -71
-35 -10 -10 -21 -14 -24 -9 -2 4 -2 209 1 456 l5 447 74 0 73 0 -2 -421z m106
-620 c57 -45 71 -115 35 -179 -26 -45 -65 -70 -114 -70 -76 0 -135 57 -135
130 0 86 52 140 135 140 38 0 60 -6 79 -21z m2457 -132 c27 -14 57 -42 77 -71
l32 -48 0 -174 c0 -173 0 -174 -22 -175 -22 -2 -22 -2 1 -6 23 -5 24 -7 18
-70 -11 -115 -74 -192 -175 -214 -35 -7 -157 -9 -360 -7 -273 3 -312 6 -352
23 -73 30 -120 66 -172 130 -67 82 -93 167 -85 277 7 109 46 187 129 262 104
94 106 95 514 95 348 1 351 1 395 -22z m-1655 -306 c38 -23 64 -76 64 -130 0
-33 -7 -47 -38 -81 -35 -36 -44 -40 -88 -40 -63 0 -104 25 -128 78 -26 57 -15
105 34 154 32 32 44 38 81 38 25 0 57 -8 75 -19z m-992 -682 l86 -81 0 -394 0
-394 -75 0 -75 0 0 189 c0 186 0 190 -24 218 -20 23 -32 28 -70 28 -79 0 -81
-5 -84 -236 l-3 -200 -352 3 -352 3 -60 28 c-70 32 -124 81 -170 152 -37 57
-51 97 -59 173 l-7 52 33 2 33 1 -32 4 -33 4 0 105 0 104 239 0 239 0 50 -45
c28 -25 66 -52 84 -60 66 -27 87 -81 56 -144 -43 -88 -159 -74 -175 22 -8 51
-36 77 -85 77 -29 0 -45 -7 -63 -26 -51 -55 -40 -137 28 -211 173 -189 486
-70 487 185 0 95 -17 124 -153 254 l-122 118 -292 0 -293 0 0 75 0 75 579 0
580 0 85 -81z m2012 -363 c21 -21 34 -44 34 -59 0 -29 -41 -83 -71 -92 -46
-15 -109 39 -109 93 0 38 56 89 99 91 7 1 28 -14 47 -33z"></path>
<path d="M3760 6067 c-33 -17 -52 -55 -46 -95 6 -40 19 -58 59 -78 60 -32 127
17 127 92 0 35 -5 47 -31 68 -33 28 -70 33 -109 13z"></path>
<path d="M5706 6080 c-94 -29 -111 -149 -31 -219 65 -56 153 -29 184 57 13 37
14 47 1 84 -23 65 -88 98 -154 78z"></path>
<path d="M5243 6063 c-39 -5 -63 -35 -63 -79 0 -46 9 -63 41 -79 32 -17 202
-21 243 -5 69 26 72 119 6 152 -34 17 -136 22 -227 11z"></path>
<path d="M6073 4755 c-41 -18 -73 -69 -73 -117 0 -50 47 -105 98 -114 44 -8
114 25 131 62 30 67 1 142 -65 170 -41 17 -50 17 -91 -1z"></path>
<path d="M6029 4365 c-28 -15 -59 -70 -59 -103 0 -30 26 -85 50 -107 34 -31
130 -28 164 4 85 80 32 222 -82 221 -26 -1 -59 -7 -73 -15z"></path>
<path d="M6560 5608 c-64 -33 -85 -67 -85 -138 0 -44 5 -66 21 -86 53 -72 128
-91 204 -52 65 33 93 80 88 144 -5 64 -37 110 -92 135 -54 24 -83 24 -136 -3z"></path>
<path d="M7218 5363 c6 -2 18 -2 25 0 6 3 1 5 -13 5 -14 0 -19 -2 -12 -5z"></path>
<path d="M7181 5214 c0 -11 3 -14 6 -6 3 7 2 16 -1 19 -3 4 -6 -2 -5 -13z"></path>
<path d="M7285 5179 c-4 -6 -5 -12 -2 -15 2 -3 7 2 10 11 7 17 1 20 -8 4z"></path>
<path d="M7180 5160 c0 -11 2 -20 4 -20 2 0 6 9 9 20 3 11 1 20 -4 20 -5 0 -9
-9 -9 -20z"></path>
<path d="M4404 4751 c-45 -27 -64 -59 -64 -107 0 -81 80 -137 158 -111 43 14
82 67 82 111 0 61 -63 126 -122 126 -13 0 -37 -9 -54 -19z"></path>
<path d="M3468 4393 c18 -2 45 -2 60 0 15 2 0 4 -33 4 -33 0 -45 -2 -27 -4z"></path>
<path d="M3470 4140 c-9 -6 -10 -10 -3 -10 6 0 15 5 18 10 8 12 4 12 -15 0z"></path>
<path d="M3495 4120 c-3 -5 -1 -10 4 -10 6 0 11 5 11 10 0 6 -2 10 -4 10 -3 0
-8 -4 -11 -10z"></path>
<path d="M5577 3123 c-4 -3 -7 -223 -7 -488 0 -361 3 -484 12 -493 14 -14 136
-16 156 -3 19 12 31 953 12 976 -9 11 -32 15 -90 15 -42 0 -80 -3 -83 -7z"></path>
<path d="M5954 3119 c-4 -7 -8 -226 -9 -486 -2 -412 0 -474 13 -485 22 -19
150 -17 162 2 6 9 9 203 7 495 l-2 480 -82 3 c-56 2 -84 -1 -89 -9z"></path>
<path d="M2620 3053 c-30 -3 -60 -9 -67 -15 -17 -14 -19 -883 -2 -894 19 -11
652 -4 666 8 20 17 18 164 -3 172 -9 3 -121 6 -250 6 l-234 0 0 79 0 78 172 8
c95 4 180 11 189 16 18 9 39 59 39 91 0 11 -13 33 -29 49 l-29 29 -170 0 -169
0 -7 70 c-4 38 -4 74 -1 80 4 6 95 10 240 10 199 0 236 2 249 16 12 11 16 36
16 94 0 115 13 110 -300 108 -140 -1 -280 -3 -310 -5z"></path>
<path d="M3641 3051 c-17 -11 -23 5 102 -321 58 -151 128 -336 156 -410 64
-165 73 -180 111 -180 38 0 49 17 98 155 63 174 94 247 102 238 4 -4 36 -82
70 -173 81 -214 84 -220 119 -220 31 0 53 20 69 65 27 76 200 527 259 674 40
101 61 167 56 172 -6 6 -52 8 -104 7 l-94 -3 -32 -80 c-17 -44 -55 -149 -85
-232 -29 -84 -57 -151 -62 -150 -4 2 -32 61 -60 132 -77 190 -65 176 -143 173
l-65 -3 -54 -135 c-29 -74 -55 -143 -57 -152 -3 -10 -10 -18 -15 -18 -12 0
-31 48 -104 260 -27 80 -57 160 -65 178 l-15 32 -87 0 c-47 0 -92 -4 -100 -9z"></path>
<path d="M7297 3054 c-4 -4 -7 -40 -7 -81 l0 -73 -68 0 c-40 0 -73 -5 -80 -12
-7 -7 -12 -41 -12 -83 0 -42 5 -76 12 -83 7 -7 40 -12 79 -12 l67 0 4 -192 c3
-175 5 -197 25 -233 28 -53 88 -109 138 -130 53 -22 189 -32 210 -15 19 16 21
150 3 168 -7 7 -37 12 -67 12 -59 1 -87 16 -110 57 -7 14 -11 79 -11 177 l0
156 84 0 c119 0 116 -2 116 89 0 47 -5 82 -12 89 -8 8 -45 12 -100 12 l-87 0
-3 78 -3 77 -85 3 c-47 1 -89 0 -93 -4z"></path>
<path d="M6582 2910 c-121 -25 -217 -101 -274 -217 -30 -62 -32 -74 -33 -167
0 -93 3 -106 32 -168 42 -90 108 -158 186 -194 56 -26 72 -29 173 -29 107 0
112 1 187 38 42 21 86 50 98 65 l21 27 -58 53 c-31 28 -63 52 -69 52 -7 0 -20
-9 -29 -19 -23 -26 -99 -51 -150 -51 -23 0 -59 9 -81 19 -43 19 -115 87 -115
108 0 10 65 13 293 15 l292 3 3 64 c8 163 -97 322 -250 379 -64 24 -167 34
-226 22z m193 -205 c37 -21 85 -86 85 -114 0 -8 -58 -11 -195 -11 -129 0 -195
4 -195 10 0 20 28 65 58 93 62 59 167 68 247 22z"></path>
<path d="M4935 2897 c-78 -26 -165 -78 -165 -97 0 -4 20 -36 45 -69 l46 -62
27 19 c46 31 90 45 147 44 65 0 110 -23 142 -72 41 -59 39 -60 -129 -60 -185
0 -220 -8 -274 -65 -93 -96 -80 -247 28 -339 91 -79 275 -91 370 -24 26 18 27
18 30 -4 3 -20 11 -24 68 -31 42 -6 75 -5 93 2 l28 11 -3 267 c-3 257 -4 270
-26 311 -35 66 -88 119 -148 148 -45 22 -72 28 -147 30 -59 3 -106 -1 -132 -9z
m265 -468 c0 -6 -7 -25 -15 -42 -43 -91 -206 -115 -265 -40 -24 31 -26 56 -4
77 12 13 41 16 150 16 91 0 134 -4 134 -11z"></path>
<path d="M3345 2595 c-29 -29 -34 -88 -9 -123 15 -21 21 -22 184 -22 163 0
169 1 184 22 24 34 20 90 -9 122 -24 26 -25 26 -175 26 -147 0 -152 -1 -175
-25z"></path>
</g>
</svg><style>@media (prefers-color-scheme: light) { :root { filter: none; } }
</style></svg>